<?xml version="1.0" encoding="utf-8"?>
<!-- Generator: Adobe Illustrator 16.0.0, SVG Export Plug-In . SVG Version: 6.00 Build 0)  -->
<!DOCTYPE svg PUBLIC "-//W3C//DTD SVG 1.1//EN" "http://www.w3.org/Graphics/SVG/1.1/DTD/svg11.dtd">
<svg version="1.1" id="Layer_1" xmlns="http://www.w3.org/2000/svg" xmlns:xlink="http://www.w3.org/1999/xlink" x="0px" y="0px"
	 width="32px" height="32px" viewBox="0 0 32 32" enable-background="new 0 0 32 32" xml:space="preserve">
<path fill="#BCC3D7" d="M17.414,16L30.707,2.707c0.391-0.391,0.391-1.023,0-1.414s-1.023-0.391-1.414,0L16,14.586L2.707,1.293
	c-0.391-0.391-1.023-0.391-1.414,0s-0.391,1.023,0,1.414L14.586,16L1.293,29.293c-0.391,0.391-0.391,1.023,0,1.414
	C1.488,30.902,1.744,31,2,31s0.512-0.098,0.707-0.293L16,17.414l13.293,13.293C29.488,30.902,29.744,31,30,31
	s0.512-0.098,0.707-0.293c0.391-0.391,0.391-1.023,0-1.414L17.414,16z"/>
</svg>
