<?xml version="1.0" encoding="utf-8"?>
<!-- Generator: Adobe Illustrator 16.0.0, SVG Export Plug-In . SVG Version: 6.00 Build 0)  -->
<!DOCTYPE svg PUBLIC "-//W3C//DTD SVG 1.1//EN" "http://www.w3.org/Graphics/SVG/1.1/DTD/svg11.dtd">
<svg version="1.1" id="Layer_1" xmlns="http://www.w3.org/2000/svg" xmlns:xlink="http://www.w3.org/1999/xlink" x="0px" y="0px"
	 width="16px" height="16px" viewBox="0 0 16 16" enable-background="new 0 0 16 16" xml:space="preserve">
<path fill="#142248" d="M15.592,12.215l-1.967-1.969c-0.543-0.543-1.425-0.543-1.968,0s-0.984,0.984-0.984,0.984
	c-0.543,0.543-1.426,0.543-1.969,0L4.77,7.295c-0.543-0.543-0.543-1.426,0-1.968l0.984-0.984c0.543-0.543,0.543-1.424,0-1.968
	L3.785,0.408c-0.543-0.544-1.424-0.544-1.968,0C1.275,0.951,0.834,1.392,0.834,1.392C-0.793,3.019,0.19,6.651,1.817,8.279
	l5.903,5.903c1.628,1.628,5.261,2.61,6.889,0.983l0.982-0.983C16.137,13.639,16.137,12.758,15.592,12.215z"/>
</svg>
