<?xml version="1.0" encoding="utf-8"?>
<!-- Generator: Adobe Illustrator 16.0.0, SVG Export Plug-In . SVG Version: 6.00 Build 0)  -->
<!DOCTYPE svg PUBLIC "-//W3C//DTD SVG 1.1//EN" "http://www.w3.org/Graphics/SVG/1.1/DTD/svg11.dtd">
<svg version="1.1" id="Layer_1" xmlns="http://www.w3.org/2000/svg" xmlns:xlink="http://www.w3.org/1999/xlink" x="0px" y="0px"
	 width="22px" height="16px" viewBox="0 0 22 16" enable-background="new 0 0 22 16" xml:space="preserve">
<g>
	<path fill="#485E88" d="M19,0H3C1.346,0,0,1.346,0,3v10c0,1.654,1.346,3,3,3h16c1.654,0,3-1.346,3-3V3C22,1.346,20.654,0,19,0z
		 M20,13c0,0.551-0.448,1-1,1H3c-0.552,0-1-0.449-1-1V3c0-0.551,0.449-1,1-1h16c0.552,0,1,0.449,1,1V13z"/>
	<path fill="#485E88" d="M16.359,4.734L11,9.195L5.641,4.734C5.217,4.381,4.586,4.438,4.232,4.863
		C3.879,5.288,3.937,5.918,4.361,6.271l5.999,4.995c0.185,0.153,0.413,0.23,0.64,0.23s0.455-0.077,0.641-0.23l5.998-4.995
		c0.426-0.354,0.482-0.984,0.129-1.408C17.414,4.438,16.782,4.38,16.359,4.734z"/>
</g>
</svg>
