<?xml version="1.0" encoding="utf-8"?>
<!-- Generator: Adobe Illustrator 16.0.0, SVG Export Plug-In . SVG Version: 6.00 Build 0)  -->
<!DOCTYPE svg PUBLIC "-//W3C//DTD SVG 1.1//EN" "http://www.w3.org/Graphics/SVG/1.1/DTD/svg11.dtd">
<svg version="1.1" id="Capa_1_copy" xmlns="http://www.w3.org/2000/svg" xmlns:xlink="http://www.w3.org/1999/xlink" x="0px"
	 y="0px" width="24px" height="24px" viewBox="0 0 24 24" enable-background="new 0 0 24 24" xml:space="preserve">
<g>
	<path fill="#BCC3D7" d="M21.47,7.7H2.53c-0.662,0-1.2,0.543-1.2,1.21v8.43c0,0.667,0.538,1.21,1.2,1.21h18.94
		c0.662,0,1.2-0.543,1.2-1.21V8.91C22.67,8.243,22.132,7.7,21.47,7.7z"/>
	<path fill="#142248" d="M5.99,9.8H4.5C4.31,9.8,4.13,9.87,4,10c-0.13,0.14-0.2,0.32-0.2,0.5l0.01,5.34c0,0.39,0.31,0.71,0.7,0.71
		c0.39,0,0.7-0.32,0.7-0.71v-1.62h0.78c1.23,0,2.24-0.99,2.24-2.21C8.23,10.79,7.22,9.8,5.99,9.8z M5.99,12.81
		c-0.18,0-0.49,0-0.78,0.01V11.2h0.78c0.45,0,0.83,0.37,0.83,0.81C6.82,12.44,6.44,12.81,5.99,12.81z"/>
	<path fill="#142248" d="M11.97,9.8H10.5c-0.19,0-0.37,0.07-0.5,0.2c-0.13,0.14-0.2,0.31-0.2,0.5c0,0,0.01,5.17,0.01,5.19
		c0,0.18,0.07,0.36,0.21,0.49c0.13,0.14,0.31,0.21,0.49,0.21c0.03,0,0.3,0,0.62-0.01h0.89c1.59-0.03,2.75-1.41,2.75-3.29
		C14.77,11.12,13.64,9.8,11.97,9.8z M12,14.97c-0.18,0-0.5,0.01-0.79,0.01c0-0.61,0-3.14-0.01-3.78h0.77c1.29,0,1.39,1.45,1.39,1.89
		C13.36,14.02,12.94,14.95,12,14.97z"/>
	<path fill="#142248" d="M19.93,13.05c0,0.39-0.31,0.7-0.7,0.7h-1.28v2c0,0.39-0.31,0.7-0.7,0.7s-0.7-0.31-0.7-0.7v-5.3
		c0-0.39,0.31-0.71,0.7-0.71h2.15c0.39,0,0.7,0.32,0.7,0.71c0,0.38-0.31,0.7-0.7,0.7h-1.45v1.19h1.28
		C19.62,12.34,19.93,12.66,19.93,13.05z"/>
	<path fill="#8390B1" d="M3.95,21.89c0,0.662,0.543,1.2,1.21,1.2h13.68c0.667,0,1.21-0.538,1.21-1.2v-2.94H3.95V21.89z"/>
	<path fill="#8390B1" d="M19.333,4.807l-2.926-3.096C15.912,1.202,15.224,0.91,14.52,0.91H5.16c-0.667,0-1.21,0.538-1.21,1.2V7.3
		h16.1V6.6C20.05,5.931,19.795,5.294,19.333,4.807z"/>
	<path fill="#485E88" d="M21.47,6.8h-0.52V6.6c0-0.91-0.34-1.77-0.96-2.42L17.07,1.1C16.41,0.4,15.48,0,14.52,0H5.16
		C3.99,0,3.05,0.95,3.05,2.11V6.8H2.53c-1.16,0-2.11,0.94-2.11,2.11v8.43c0,1.17,0.95,2.11,2.11,2.11h0.52v2.44
		c0,1.16,0.94,2.11,2.11,2.11h13.68c1.17,0,2.11-0.95,2.11-2.11v-2.44h0.52c1.16,0,2.11-0.94,2.11-2.11V8.91
		C23.58,7.74,22.63,6.8,21.47,6.8z M4.45,2.11c0-0.39,0.32-0.7,0.71-0.7h9.36c0.57,0,1.13,0.24,1.53,0.65l2.92,3.09
		c0.37,0.39,0.58,0.9,0.58,1.45v0.2H4.45V2.11z M19.55,21.89c0,0.39-0.32,0.7-0.71,0.7H5.16c-0.39,0-0.71-0.31-0.71-0.7v-2.44h15.1
		V21.89z M22.17,17.34c0,0.39-0.31,0.71-0.7,0.71H2.53c-0.39,0-0.7-0.32-0.7-0.71V8.91c0-0.39,0.31-0.71,0.7-0.71h18.94
		c0.39,0,0.7,0.32,0.7,0.71V17.34z"/>
</g>
</svg>
