<?xml version="1.0" encoding="utf-8"?>
<!-- Generator: Adobe Illustrator 16.0.0, SVG Export Plug-In . SVG Version: 6.00 Build 0)  -->
<!DOCTYPE svg PUBLIC "-//W3C//DTD SVG 1.1//EN" "http://www.w3.org/Graphics/SVG/1.1/DTD/svg11.dtd">
<svg version="1.1" id="Layer_1" xmlns="http://www.w3.org/2000/svg" xmlns:xlink="http://www.w3.org/1999/xlink" x="0px" y="0px"
	 width="16px" height="16px" viewBox="0 0 16 16" enable-background="new 0 0 16 16" xml:space="preserve">
<g>
	<path fill="#485E88" d="M8,0C3.589,0,0,3.589,0,8s3.589,8,8,8s8-3.589,8-8S12.411,0,8,0z M8,14c-3.309,0-6-2.691-6-6
		c0-3.309,2.691-6,6-6c3.309,0,6,2.691,6,6C14,11.309,11.309,14,8,14z"/>
	<path fill="#485E88" d="M10.121,5.525L7.293,8.354L5.879,6.939c-0.391-0.391-1.023-0.391-1.414,0c-0.391,0.391-0.391,1.023,0,1.414
		l2.121,2.122c0.195,0.194,0.451,0.293,0.707,0.293S7.805,10.67,8,10.475l3.535-3.535c0.391-0.391,0.391-1.023,0-1.414
		C11.145,5.135,10.512,5.135,10.121,5.525z"/>
</g>
</svg>
