<?xml version="1.0" encoding="utf-8"?>
<!-- Generator: Adobe Illustrator 16.0.0, SVG Export Plug-In . SVG Version: 6.00 Build 0)  -->
<!DOCTYPE svg PUBLIC "-//W3C//DTD SVG 1.1//EN" "http://www.w3.org/Graphics/SVG/1.1/DTD/svg11.dtd">
<svg version="1.1" id="Layer_1" xmlns="http://www.w3.org/2000/svg" xmlns:xlink="http://www.w3.org/1999/xlink" x="0px" y="0px"
	 width="16px" height="16px" viewBox="0 0 16 16" enable-background="new 0 0 16 16" xml:space="preserve">
<g>
	<path fill="#142248" d="M8,0C3.589,0,0,3.589,0,8c0,1.434,0.379,2.823,1.102,4.051l-1.03,2.578C-0.077,15,0.01,15.424,0.293,15.707
		C0.484,15.898,0.74,16,1,16c0.125,0,0.251-0.023,0.371-0.071l2.578-1.03C5.177,15.621,6.566,16,8,16c4.411,0,8-3.589,8-8
		S12.411,0,8,0z M8,14c-1.212,0-2.382-0.361-3.384-1.045C4.447,12.84,4.25,12.78,4.052,12.78c-0.125,0-0.251,0.023-0.371,0.071
		l-0.887,0.354l0.354-0.887c0.124-0.31,0.085-0.659-0.103-0.935C2.361,10.383,2,9.213,2,8c0-3.309,2.691-6,6-6s6,2.691,6,6
		S11.309,14,8,14z"/>
	<path fill="#142248" d="M10.646,8.72c-0.311-0.31-0.813-0.31-1.122,0S8.963,9.28,8.963,9.28c-0.309,0.31-0.813,0.31-1.122,0
		L6.72,8.158c-0.31-0.309-0.31-0.813,0-1.121L7.28,6.476c0.31-0.309,0.31-0.812,0-1.122L6.159,4.232c-0.31-0.31-0.813-0.31-1.122,0
		c-0.31,0.309-0.561,0.56-0.561,0.56C3.548,5.721,4.108,7.791,5.037,8.72l2.244,2.243c0.929,0.929,2.999,1.489,3.927,0.562
		l0.561-0.562c0.311-0.309,0.311-0.812,0-1.121L10.646,8.72z"/>
</g>
</svg>
