<?xml version="1.0" encoding="utf-8"?>
<!-- Generator: Adobe Illustrator 16.0.0, SVG Export Plug-In . SVG Version: 6.00 Build 0)  -->
<!DOCTYPE svg PUBLIC "-//W3C//DTD SVG 1.1//EN" "http://www.w3.org/Graphics/SVG/1.1/DTD/svg11.dtd">
<svg version="1.1" id="Layer_1" xmlns="http://www.w3.org/2000/svg" xmlns:xlink="http://www.w3.org/1999/xlink" x="0px" y="0px"
	 width="233.588px" height="116.047px" viewBox="0 0 233.588 116.047" enable-background="new 0 0 233.588 116.047"
	 xml:space="preserve">
<g id="Слой_x0020_1">
	<polygon fill="#FFFFFF" points="199.151,94.794 214.97,78.977 199.086,63.094 	"/>
	<polygon fill="#FFFFFF" points="199.17,25.913 183.353,41.731 199.235,57.613 	"/>
	<polygon fill="#FFFFFF" points="233.588,60.855 217.771,45.038 201.888,60.92 	"/>
	<polygon fill="#FFFFFF" points="164.61,60.855 180.427,45.038 196.31,60.92 	"/>
	<polygon fill="#FFFFFF" points="164.61,22.483 180.427,38.3 196.31,22.418 	"/>
	<polygon fill="#FFFFFF" points="161.375,25.913 177.194,41.731 161.312,57.613 	"/>
	<polygon fill="#FFFFFF" points="133.979,22.46 156.351,22.46 156.351,0 	"/>
	<polygon fill="#FFFFFF" points="131.093,22.46 108.723,22.46 108.723,0 	"/>
	<polygon fill="#FFFFFF" points="117.143,27.131 132.96,42.949 148.843,27.068 	"/>
	<polygon fill="#FFFFFF" points="108.995,25.913 124.813,41.731 108.932,57.613 	"/>
	<path fill="#FFFFFF" d="M27.249,99.189h-6.968V76.533H20.23l-6.605,12.281L7.018,76.533H6.967v22.654H0V61.877h6.451l7.173,14.759
		l7.174-14.759h6.451V99.189L27.249,99.189z M44.022,99.189H30.655V70.082h13.367v5.109h-7.277v6.604h6.038v4.646h-6.038v7.639
		h7.277V99.189z M56.769,99.189h-6.142V75.191h-4.645v-5.108h15.379v5.108h-4.593L56.769,99.189L56.769,99.189z"/>
	<path fill="#FFFFFF" d="M69.826,92.635h6.244V68.328h-6.244V92.635z M69.396,99.189l-6.795-6.555V68.328l6.743-6.451h7.208
		l6.744,6.451v24.307l-6.795,6.555H69.396L69.396,99.189z M92.688,99.189h-6.09V70.082h16.98v29.105h-6.09V74.727h-4.8V99.189
		L92.688,99.189z M116.739,99.189h-6.141V75.191h-4.645v-5.108h15.378v5.108h-4.593L116.739,99.189L116.739,99.189z"/>
	<path fill="#FFFFFF" d="M135.574,99.189h-7.226V68.43h-5.572v-6.553h18.32v6.553h-5.521L135.574,99.189L135.574,99.189z
		 M147.187,94.08h5.213V75.141h-5.213V94.08z M146.825,99.189l-5.729-5.108v-18.94l5.676-5.059h6.039l5.676,5.059V94.08
		l-5.676,5.107h-5.986V99.189z M167.571,84.326h4.336v-9.135h-4.336V84.326z M167.571,99.189h-6.09V70.082h11.561l4.902,3.975
		v11.198l-4.902,3.974h-5.471V99.189L167.571,99.189z M186.925,99.189h-6.09V70.082h13.057v5.109h-6.967V99.189L186.925,99.189z"/>
	<polygon fill="#FFFFFF" points="156.209,25.913 140.392,41.731 156.272,57.613 	"/>
	<polygon fill="#FFFFFF" points="214.905,84.35 199.086,100.166 214.968,116.047 	"/>
</g>
</svg>
