<?xml version="1.0" encoding="utf-8"?>
<!-- Generator: Adobe Illustrator 16.0.0, SVG Export Plug-In . SVG Version: 6.00 Build 0)  -->
<!DOCTYPE svg PUBLIC "-//W3C//DTD SVG 1.1//EN" "http://www.w3.org/Graphics/SVG/1.1/DTD/svg11.dtd">
<svg version="1.1" id="Layer_1" xmlns="http://www.w3.org/2000/svg" xmlns:xlink="http://www.w3.org/1999/xlink" x="0px" y="0px"
	 width="233.588px" height="116.047px" viewBox="0 0 233.588 116.047" enable-background="new 0 0 233.588 116.047"
	 xml:space="preserve">
<g id="Слой_x0020_1">
	<polygon fill="#485E88" points="199.151,94.794 214.969,78.976 199.086,63.094 	"/>
	<polygon fill="#8390B1" points="199.17,25.913 183.352,41.731 199.235,57.613 	"/>
	<polygon fill="#485E88" points="233.588,60.856 217.77,45.038 201.888,60.92 	"/>
	<polygon fill="#485E88" points="164.61,60.856 180.427,45.038 196.31,60.92 	"/>
	<polygon fill="#8390B1" points="164.61,22.483 180.427,38.3 196.31,22.418 	"/>
	<polygon fill="#8390B1" points="161.375,25.913 177.194,41.731 161.312,57.613 	"/>
	<polygon fill="#BCC3D7" points="133.98,22.46 156.35,22.46 156.35,0 	"/>
	<polygon fill="#BCC3D7" points="131.093,22.46 108.723,22.46 108.723,0 	"/>
	<polygon fill="#BCC3D7" points="117.143,27.131 132.96,42.949 148.843,27.068 	"/>
	<polygon fill="#BCC3D7" points="108.995,25.913 124.814,41.731 108.932,57.613 	"/>
	<path fill="#BCC3D7" d="M27.249,99.189h-6.968V76.533H20.23l-6.605,12.282L7.018,76.533H6.967v22.655H0V61.877h6.451l7.173,14.759
		l7.174-14.759h6.451V99.189L27.249,99.189z M44.022,99.189H30.655V70.082h13.367v5.109h-7.277v6.605h6.038v4.646h-6.038v7.638
		h7.277V99.189z M56.769,99.189h-6.142V75.192h-4.645v-5.109h15.379v5.109h-4.593V99.189z"/>
	<path fill="#8390B1" d="M69.826,92.635h6.244V68.328h-6.244V92.635z M69.396,99.189l-6.795-6.554V68.328l6.743-6.451h7.208
		l6.744,6.451v24.307l-6.795,6.554H69.396L69.396,99.189z M92.688,99.189h-6.09V70.082h16.98v29.106h-6.09V74.727h-4.8
		L92.688,99.189L92.688,99.189z M116.739,99.189h-6.141V75.191h-4.645v-5.108h15.378v5.108h-4.593V99.189z"/>
	<path fill="#485E88" d="M135.574,99.189h-7.225V68.43h-5.573v-6.553h18.32v6.553h-5.521L135.574,99.189L135.574,99.189z
		 M147.186,94.08h5.213V75.141h-5.213V94.08z M146.825,99.189l-5.729-5.108V75.141l5.677-5.059h6.038l5.677,5.059V94.08
		l-5.677,5.108H146.825L146.825,99.189z M167.572,84.326h4.335v-9.135h-4.335V84.326z M167.572,99.189h-6.09V70.082h11.56
		l4.903,3.974v11.199l-4.903,3.973h-5.47V99.189L167.572,99.189z M186.925,99.189h-6.09V70.082h13.057v5.109h-6.967V99.189
		L186.925,99.189z"/>
	<polygon fill="#BCC3D7" points="156.209,25.913 140.391,41.731 156.272,57.613 	"/>
	<polygon fill="#485E88" points="214.905,84.349 199.086,100.166 214.968,116.047 	"/>
</g>
</svg>
